HIERARCHY
ROOT Hips
{
  OFFSET 5.84602e-005 68.8428 3.50346
  CHANNELS 6 Xposition Yposition Zposition Zrotation Xrotation Yrotation
  JOINT Spine
  {
    OFFSET 0 8.597 -4.6522
    CHANNELS 3 Zrotation Xrotation Yrotation
    JOINT Spine1
    {
      OFFSET 0 7.8454 0.4098
      CHANNELS 3 Zrotation Xrotation Yrotation
      JOINT Spine2
      {
        OFFSET 0 9.7078 -2.1609
        CHANNELS 3 Zrotation Xrotation Yrotation
        JOINT Neck
        {
          OFFSET 0 21.8761 -0.4549
          CHANNELS 3 Zrotation Xrotation Yrotation
          JOINT Head
          {
            OFFSET 0 12.3537 3.3602
            CHANNELS 3 Zrotation Xrotation Yrotation
            End Site
            {
              OFFSET 0.0001 18.9506 0.5657
            }
          }
        }
        JOINT LeftShoulder
        {
          OFFSET 2.2086 21.1115 7.2329
          CHANNELS 3 Zrotation Xrotation Yrotation
          JOINT LeftArm
          {
            OFFSET 13.1193 3.0282 -4.8998
            CHANNELS 3 Zrotation Xrotation Yrotation
            JOINT LeftForeArm
            {
              OFFSET 27.4081 -0.0973053 -0.2375
              CHANNELS 3 Zrotation Xrotation Yrotation
              JOINT LeftHand
              {
                OFFSET 22.8641 0.0662994 -0.1369
                CHANNELS 3 Zrotation Xrotation Yrotation
                JOINT LeftHandIndex1
                {
                  OFFSET 8.8614 0.775009 2.4612
                  CHANNELS 3 Zrotation Xrotation Yrotation
                  JOINT LeftHandIndex2
                  {
                    OFFSET 3.3146 -0.808304 0.5841
                    CHANNELS 3 Zrotation Xrotation Yrotation
                    JOINT LeftHandIndex3
                    {
                      OFFSET 2.2628 -0.552002 0.3989
                      CHANNELS 3 Zrotation Xrotation Yrotation
                      End Site
                      {
                        OFFSET 1.6102 -0.4807 0.2612
                      }
                    }
                  }
                }
                JOINT LeftHandMiddle1
                {
                  OFFSET 8.9937 0.895004 0.2143
                  CHANNELS 3 Zrotation Xrotation Yrotation
                  JOINT LeftHandMiddle2
                  {
                    OFFSET 4.0984 0.0113983 -0.0242
                    CHANNELS 3 Zrotation Xrotation Yrotation
                    JOINT LeftHandMiddle3
                    {
                      OFFSET 2.2716 0.00689697 -0.0138001
                      CHANNELS 3 Zrotation Xrotation Yrotation
                      End Site
                      {
                        OFFSET 2.0404 -0.1441 0.0027
                      }
                    }
                  }
                }
                JOINT LeftHandRing1
                {
                  OFFSET 8.5234 0.597198 -2.0164
                  CHANNELS 3 Zrotation Xrotation Yrotation
                  JOINT LeftHandRing2
                  {
                    OFFSET 3.7188 -0.188293 -0.2328
                    CHANNELS 3 Zrotation Xrotation Yrotation
                    JOINT LeftHandRing3
                    {
                      OFFSET 2.1191 -0.106598 -0.1332
                      CHANNELS 3 Zrotation Xrotation Yrotation
                      End Site
                      {
                        OFFSET 1.8737 -0.2304 -0.0886
                      }
                    }
                  }
                }
                JOINT LeftHandPinky1
                {
                  OFFSET 7.9094 -0.601089 -3.4825
                  CHANNELS 3 Zrotation Xrotation Yrotation
                  JOINT LeftHandPinky2
                  {
                    OFFSET 2.2874 -0.477005 -0.6314
                    CHANNELS 3 Zrotation Xrotation Yrotation
                    JOINT LeftHandPinky3
                    {
                      OFFSET 1.6774 -0.349396 -0.4633
                      CHANNELS 3 Zrotation Xrotation Yrotation
                      End Site
                      {
                        OFFSET 1.4888 -0.4091 -0.3416
                      }
                    }
                  }
                }
                JOINT LeftHandThumb1
                {
                  OFFSET 1.833 -1.3875 1.3896
                  CHANNELS 3 Zrotation Xrotation Yrotation
                  JOINT LeftHandThumb2
                  {
                    OFFSET 3.4129 -1.121 2.5732
                    CHANNELS 3 Zrotation Xrotation Yrotation
                    JOINT LeftHandThumb3
                    {
                      OFFSET 2.2474 -0.804199 1.6192
                      CHANNELS 3 Zrotation Xrotation Yrotation
                      End Site
                      {
                        OFFSET 1.6527 -0.5689 1.1317
                      }
                    }
                  }
                }
              }
            }
          }
        }
        JOINT RightShoulder
        {
          OFFSET -2.2086 21.1115 7.2329
          CHANNELS 3 Zrotation Xrotation Yrotation
          JOINT RightArm
          {
            OFFSET -13.1216 3.0287 -4.9007
            CHANNELS 3 Zrotation Xrotation Yrotation
            JOINT RightForeArm
            {
              OFFSET -27.4081 -0.0973053 -0.2375
              CHANNELS 3 Zrotation Xrotation Yrotation
              JOINT RightHand
              {
                OFFSET -22.8641 0.0664063 -0.1369
                CHANNELS 3 Zrotation Xrotation Yrotation
                JOINT RightHandIndex1
                {
                  OFFSET -8.8614 0.774994 2.4612
                  CHANNELS 3 Zrotation Xrotation Yrotation
                  JOINT RightHandIndex2
                  {
                    OFFSET -3.3146 -0.808304 0.5841
                    CHANNELS 3 Zrotation Xrotation Yrotation
                    JOINT RightHandIndex3
                    {
                      OFFSET -2.2628 -0.552002 0.3989
                      CHANNELS 3 Zrotation Xrotation Yrotation
                      End Site
                      {
                        OFFSET -1.6102 -0.4807 0.2612
                      }
                    }
                  }
                }
                JOINT RightHandMiddle1
                {
                  OFFSET -8.9937 0.894989 0.2143
                  CHANNELS 3 Zrotation Xrotation Yrotation
                  JOINT RightHandMiddle2
                  {
                    OFFSET -4.0984 0.0113983 -0.0242
                    CHANNELS 3 Zrotation Xrotation Yrotation
                    JOINT RightHandMiddle3
                    {
                      OFFSET -2.2716 0.00691223 -0.0138001
                      CHANNELS 3 Zrotation Xrotation Yrotation
                      End Site
                      {
                        OFFSET -2.0404 -0.1441 0.0027
                      }
                    }
                  }
                }
                JOINT RightHandRing1
                {
                  OFFSET -8.5234 0.597198 -2.0164
                  CHANNELS 3 Zrotation Xrotation Yrotation
                  JOINT RightHandRing2
                  {
                    OFFSET -3.7188 -0.188309 -0.2328
                    CHANNELS 3 Zrotation Xrotation Yrotation
                    JOINT RightHandRing3
                    {
                      OFFSET -2.1191 -0.106598 -0.1332
                      CHANNELS 3 Zrotation Xrotation Yrotation
                      End Site
                      {
                        OFFSET -1.8737 -0.2304 -0.0886
                      }
                    }
                  }
                }
                JOINT RightHandPinky1
                {
                  OFFSET -7.9094 -0.601105 -3.4825
                  CHANNELS 3 Zrotation Xrotation Yrotation
                  JOINT RightHandPinky2
                  {
                    OFFSET -2.2874 -0.477005 -0.6314
                    CHANNELS 3 Zrotation Xrotation Yrotation
                    JOINT RightHandPinky3
                    {
                      OFFSET -1.6774 -0.349396 -0.4633
                      CHANNELS 3 Zrotation Xrotation Yrotation
                      End Site
                      {
                        OFFSET -1.4888 -0.4091 -0.3416
                      }
                    }
                  }
                }
                JOINT RightHandThumb1
                {
                  OFFSET -1.833 -1.38751 1.3896
                  CHANNELS 3 Zrotation Xrotation Yrotation
                  JOINT RightHandThumb2
                  {
                    OFFSET -3.41299 -1.12099 2.5732
                    CHANNELS 3 Zrotation Xrotation Yrotation
                    JOINT RightHandThumb3
                    {
                      OFFSET -2.24741 -0.804108 1.6192
                      CHANNELS 3 Zrotation Xrotation Yrotation
                      End Site
                      {
                        OFFSET -1.6527 -0.5689 1.1317
                      }
                    }
                  }
                }
              }
            }
          }
        }
      }
    }
  }
  JOINT RightUpLeg
  {
    OFFSET -9.1966 3.8861 -0.7581
    CHANNELS 3 Zrotation Xrotation Yrotation
    JOINT RightLeg
    {
      OFFSET -0.7359 -41.0265 0
      CHANNELS 3 Zrotation Xrotation Yrotation
      JOINT RightFoot
      {
        OFFSET 0 -40.2855 0
        CHANNELS 3 Zrotation Xrotation Yrotation
        JOINT RightToeBase
        {
          OFFSET 0 -5.6122 11.7359
          CHANNELS 3 Zrotation Xrotation Yrotation
          End Site
          {
            OFFSET 0 0 7.8731
          }
        }
      }
    }
  }
  JOINT LeftUpLeg
  {
    OFFSET 9.1965 3.8864 -0.7581
    CHANNELS 3 Zrotation Xrotation Yrotation
    JOINT LeftLeg
    {
      OFFSET 0.7359 -41.0268 0
      CHANNELS 3 Zrotation Xrotation Yrotation
      JOINT LeftFoot
      {
        OFFSET 0 -40.2855 0
        CHANNELS 3 Zrotation Xrotation Yrotation
        JOINT LeftToeBase
        {
          OFFSET 0 -5.6122 11.7359
          CHANNELS 3 Zrotation Xrotation Yrotation
          End Site
          {
            OFFSET 0 0 7.8731
          }
        }
      }
    }
  }
}
MOTION
Frames:	5
Frame Time:	0.0333333
37.9899 27.7657 17.259 92.8129 89.9863 135.18 8.76963 4.01394 3.56438 17.3436 8.51884 6.49835 17.3436 8.51885 6.49832 16.0223 -0.00230709 -7.00164 7.18259 -0.440475 -28.0609 -1.22207 3.32516 34.8263 3.01336 31.9337 -32.3621 43.9529 -26.3083 -49.9562 -5.35465 10.8139 1.60845 3.97569e-016 -3.18055e-015 -0 2.11143e-007 -2.5081e-008 -1.76058e-008 1.19271e-015 -4.77083e-015 1.59028e-015 3.97569e-016 -3.18055e-015 -0 -0.0146043 -8.8677e-005 -2.15691e-006 -4.41391e-032 1.59028e-015 1.59028e-015 3.97569e-016 -3.18055e-015 -0 -0.0187436 -0.00117398 5.79142e-005 7.95139e-016 1.59028e-015 -3.18055e-015 3.97569e-016 -3.18055e-015 -0 -0.012219 -0.00323528 0.000673287 -7.95139e-016 1.59028e-015 -0 3.97569e-016 -3.18055e-015 -0 2.11143e-007 -2.5081e-008 -1.76058e-008 1.19271e-015 -4.77083e-015 1.59028e-015 23.2182 6.7177 19.4233 8.02068 -52.4183 -30.2148 0.0541616 -15.3055 1.28287 30.528 -2.99464 -3.84167 -1.75915e-006 -1.80224e-006 2.15365e-006 -1.75915e-006 -1.80224e-006 2.15365e-006 0 0 -3.18055e-015 -1.75915e-006 -1.80224e-006 2.15365e-006 0.0150234 -9.90766e-005 4.2504e-006 3.18055e-015 -7.95139e-015 -0 -1.75915e-006 -1.80224e-006 2.15365e-006 0.0189605 -0.00119189 -6.56492e-005 3.18055e-015 -4.77083e-015 -9.54166e-015 -1.75915e-006 -1.80224e-006 2.15365e-006 0.0122339 -0.00324006 -0.000669342 -6.36111e-015 -3.18055e-015 -3.18055e-015 -1.75915e-006 -1.80224e-006 2.15365e-006 -1.75915e-006 -1.80224e-006 2.15365e-006 0 0 -3.18055e-015 142.581 -33.5947 157.598 82.0262 47.3687 -81.3107 4.69436 8.70753 5.37264 2.38542e-015 -3.18055e-015 7.95139e-016 127.661 -44.8732 128.466 39.5316 67.6694 -36.3689 -17.0682 9.0864 7.4949 -1.59028e-015 3.18055e-015 -0 
37.9909 27.7657 17.1354 92.8129 89.9863 135.18 8.68912 3.9965 3.58165 17.1812 8.48267 6.54167 17.1812 8.48267 6.54167 16.2087 -0.00233373 -7.00159 7.36014 -0.470642 -28.2354 -0.600457 3.18204 34.9865 3.01336 31.9337 -32.3621 44.0396 -26.3987 -50.1019 -5.62178 10.6948 1.59356 -3.21706e-007 8.94863e-007 1.06231e-008 -3.97569e-016 -2.22639e-014 -1.59028e-015 -3.21706e-007 8.94863e-007 1.06231e-008 -3.21706e-007 8.94863e-007 1.06231e-008 -0.0146297 -8.96211e-005 -9.80689e-007 -3.21717e-007 8.94862e-007 1.07376e-008 -3.21706e-007 8.94863e-007 1.06231e-008 -0.0187454 -0.00117613 5.87266e-005 -3.21719e-007 8.94861e-007 1.07728e-008 -3.21706e-007 8.94863e-007 1.06231e-008 -0.012262 -0.00324621 0.000676763 -3.21709e-007 8.94862e-007 1.07285e-008 -3.21706e-007 8.94863e-007 1.06231e-008 -3.97569e-016 -2.22639e-014 -1.59028e-015 -3.21706e-007 8.94863e-007 1.06231e-008 23.4954 6.7168 19.4142 8.02066 -52.4183 -30.2148 0.0541785 -15.3055 1.28287 30.528 -2.99462 -3.84167 -8.01749e-007 6.34038e-007 5.77414e-007 1.68226e-006 2.67181e-007 -1.65293e-006 -8.01749e-007 6.34038e-007 5.77414e-007 -8.01749e-007 6.34038e-007 5.77414e-007 0.0150564 -9.26121e-005 1.04902e-006 -8.03359e-007 6.34124e-007 5.77331e-007 -8.01749e-007 6.34038e-007 5.77414e-007 0.0190599 -0.00119788 -5.54416e-005 -6.36111e-015 -4.77083e-015 -3.18055e-015 -8.01749e-007 6.34038e-007 5.77414e-007 0.0122672 -0.00324222 -0.000673654 3.18055e-015 0 -6.36111e-015 -8.01749e-007 6.34038e-007 5.77414e-007 1.68226e-006 2.67181e-007 -1.65293e-006 -8.01749e-007 6.34038e-007 5.77414e-007 142.829 -33.7482 157.475 82.0299 47.3689 -81.325 4.39889 8.85963 5.62566 7.15625e-015 1.90833e-014 1.39149e-014 127.876 -44.9066 128.485 39.5348 67.6707 -36.3728 -17.1956 9.14126 7.64794 2.27803e-006 4.2642e-007 -4.20341e-006 
37.992 27.7657 17.0118 92.8129 89.9863 135.18 8.6086 3.97907 3.59894 17.0189 8.4464 6.58495 17.0189 8.44641 6.58496 16.395 -0.00236179 -7.00159 7.53752 -0.501326 -28.4096 0.0213916 3.04068 35.1482 3.01336 31.9337 -32.3621 44.1262 -26.4894 -50.2476 -5.88883 10.5759 1.57812 2.11144e-007 -2.5209e-008 -1.74382e-008 4.22288e-007 -5.04182e-008 -3.48764e-008 2.11144e-007 -2.52091e-008 -1.74382e-008 2.11144e-007 -2.5209e-008 -1.74382e-008 -0.0146331 -8.7124e-005 -9.68377e-007 2.11145e-007 -2.52068e-008 -1.74415e-008 2.11144e-007 -2.5209e-008 -1.74382e-008 -0.0187623 -0.00117454 5.78978e-005 2.86531e-007 2.44452e-007 4.7725e-008 2.11144e-007 -2.5209e-008 -1.74382e-008 -0.0122786 -0.00325155 0.000674182 2.11144e-007 -2.52083e-008 -1.74469e-008 2.11144e-007 -2.5209e-008 -1.74382e-008 4.22288e-007 -5.04182e-008 -3.48764e-008 2.11144e-007 -2.52091e-008 -1.74382e-008 23.7726 6.71585 19.4051 8.02066 -52.4183 -30.2148 0.0541708 -15.3055 1.28288 30.528 -2.99465 -3.84167 -0 -3.18055e-015 -0 -8.81445e-007 -9.01322e-007 1.0742e-006 3.18055e-015 -3.18055e-015 3.18055e-015 -0 -3.18055e-015 -0 0.0149795 -9.50512e-005 1.84404e-006 -3.18055e-015 -1.59028e-015 -3.18055e-015 -0 -3.18055e-015 -0 0.0189846 -0.00118533 -6.28464e-005 3.18055e-015 -9.54166e-015 -3.18055e-015 -0 -3.18055e-015 -0 0.0122199 -0.0032377 -0.000671831 -6.36111e-015 -6.36111e-015 -3.18055e-015 -0 -3.18055e-015 -0 -8.81445e-007 -9.01322e-007 1.0742e-006 3.18055e-015 -3.18055e-015 3.18055e-015 143.077 -33.9021 157.353 82.0335 47.3692 -81.3395 4.10262 9.0104 5.87958 -3.18055e-015 0 3.18055e-015 128.091 -44.9399 128.505 39.538 67.6721 -36.3767 -17.3232 9.19574 7.80113 2.27671e-006 4.27184e-007 -4.20404e-006 
37.9931 27.7657 16.8882 92.8129 89.9863 135.18 8.52816 3.96164 3.61619 16.8565 8.41002 6.6282 16.8565 8.41002 6.62821 16.5813 -0.00232407 -7.00159 7.71471 -0.532545 -28.5837 0.643433 2.90113 35.3114 3.01337 31.9337 -32.3621 44.2125 -26.5802 -50.3932 -6.1558 10.457 1.56212 3.97569e-016 -4.77083e-015 -0 2.11145e-007 -2.52731e-008 -1.7351e-008 4.2229e-007 -5.05463e-008 -3.47019e-008 3.97569e-016 -4.77083e-015 -0 -0.0146393 -8.80932e-005 -3.37534e-006 4.22291e-007 -5.05419e-008 -3.47087e-008 3.97569e-016 -4.77083e-015 -0 -0.0187686 -0.00117662 5.94786e-005 4.22291e-007 -5.05407e-008 -3.47145e-008 3.97569e-016 -4.77083e-015 -0 -0.0122744 -0.00324809 0.000680548 4.2229e-007 -5.05447e-008 -3.47193e-008 3.97569e-016 -4.77083e-015 -0 2.11145e-007 -2.52731e-008 -1.7351e-008 4.2229e-007 -5.05463e-008 -3.47019e-008 24.0498 6.71488 19.396 8.02066 -52.4183 -30.2148 0.054153 -15.3055 1.28286 30.528 -2.99463 -3.84167 -6.36111e-015 1.59028e-015 -0 -3.18055e-015 1.59028e-015 -0 -9.54166e-015 1.59028e-015 -3.18055e-015 -6.36111e-015 1.59028e-015 -0 0.0149462 -8.77881e-005 1.78079e-006 -3.18055e-015 1.59028e-015 -3.18055e-015 -6.36111e-015 1.59028e-015 -0 0.0189636 -0.00118848 -6.40284e-005 3.18055e-015 -4.77083e-015 3.18055e-015 -6.36111e-015 1.59028e-015 -0 0.0122991 -0.00325336 -0.000683155 1.76556e-031 -3.18055e-015 3.18055e-015 -6.36111e-015 1.59028e-015 -0 -3.18055e-015 1.59028e-015 -0 -9.54166e-015 1.59028e-015 -3.18055e-015 143.324 -34.0566 157.231 82.0371 47.3695 -81.3538 3.80552 9.1598 6.13437 2.05586e-006 -7.46389e-007 -4.30504e-006 128.306 -44.9733 128.524 39.5411 67.6734 -36.3805 -17.451 9.24991 7.95449 3.18055e-015 6.36111e-015 -0 
37.9942 27.7656 16.7646 92.8129 89.9863 135.18 8.44768 3.94416 3.63345 16.6943 8.37358 6.6714 16.6943 8.37358 6.6714 16.7676 -0.00234539 -7.00155 7.89169 -0.564284 -28.7575 1.26562 2.76338 35.476 3.01336 31.9337 -32.3621 44.2986 -26.6713 -50.5388 -6.42268 10.3382 1.54556 3.12494e-007 8.19248e-007 -4.10788e-008 2.11146e-007 -2.53371e-008 -1.72615e-008 1.01348e-007 8.44585e-007 -2.38173e-008 3.12494e-007 8.19248e-007 -4.10788e-008 -0.0145977 -8.74542e-005 1.78822e-006 1.0134e-007 8.44588e-007 -2.37098e-008 3.12494e-007 8.19248e-007 -4.10788e-008 -0.0187413 -0.00117415 5.77696e-005 1.01337e-007 8.44588e-007 -2.36802e-008 3.12494e-007 8.19248e-007 -4.10788e-008 -0.0122865 -0.00325303 0.000678821 1.01345e-007 8.44585e-007 -2.37292e-008 3.12494e-007 8.19248e-007 -4.10788e-008 2.11146e-007 -2.53371e-008 -1.72615e-008 1.01348e-007 8.44585e-007 -2.38173e-008 24.327 6.71387 19.3869 8.02068 -52.4183 -30.2148 0.0541744 -15.3055 1.28287 30.528 -2.99464 -3.84165 8.83316e-007 9.0153e-007 -1.07157e-006 1.76663e-006 1.80306e-006 -2.14313e-006 8.83316e-007 9.0153e-007 -1.07157e-006 8.83316e-007 9.0153e-007 -1.07157e-006 0.0150092 -8.65484e-005 2.06017e-006 8.83369e-007 9.01389e-007 -1.07168e-006 8.83316e-007 9.0153e-007 -1.07157e-006 0.0190221 -0.00119435 -5.86257e-005 8.83373e-007 9.01348e-007 -1.07173e-006 8.83316e-007 9.0153e-007 -1.07157e-006 0.0122533 -0.00324351 -0.000671436 8.83325e-007 9.01409e-007 -1.07169e-006 8.83316e-007 9.0153e-007 -1.07157e-006 1.76663e-006 1.80306e-006 -2.14313e-006 8.83316e-007 9.0153e-007 -1.07157e-006 143.572 -34.2114 157.11 82.0406 47.3697 -81.3681 3.50758 9.30789 6.39004 -7.95139e-016 -3.18055e-015 3.97569e-016 128.522 -45.0065 128.544 39.5444 67.6748 -36.3846 -17.5789 9.30365 8.10799 -1.7394e-006 3.77658e-006 4.63403e-006 
